<?xml version="1.0" encoding="utf-8"?>
<!-- Generator: Adobe Illustrator 27.1.1, SVG Export Plug-In . SVG Version: 6.00 Build 0)  -->
<svg version="1.1" id="Calque_1" xmlns="http://www.w3.org/2000/svg" xmlns:xlink="http://www.w3.org/1999/xlink" x="0px" y="0px"
	 viewBox="0 0 227.9 199.4" style="enable-background:new 0 0 227.9 199.4;" xml:space="preserve">
<style type="text/css">
	.st0{display:none;}
	.st1{display:inline;fill:#0B9778;}
	.st2{fill:#0B9778;}
</style>
<g class="st0">
	<path class="st1" d="M20.3,152.6c0.2-0.9,0.4-1.8,0.7-2.8c1.4-5.3,4.5-9.1,9.3-11.7c6.5-3.4,15-2.4,20.6,2.6c0.6,0.5,1,0.5,1.5-0.1
		c6.4-6.5,12.9-12.9,19.4-19.4c0.7-0.7,0.9-1.3,0.6-2.4c-1.4-4.5-1-8.8,0.9-13.1c1.2-2.8,3.3-4.8,5.2-7c2.6-2.9,4.6-6.3,6.1-9.9
		c2.6-6.1,3.9-12.4,4.8-18.9c0.8-5.6,1.6-11.1,2.5-16.6c1-6.2,3.2-12,6.2-17.5c4.7-8.4,11.1-15.3,19-20.6c4.1-2.7,8.5-4.9,13.2-6.5
		c4.7-1.6,9.5-2.6,14.4-3c0.3,0,0.6-0.1,0.8-0.2c2.7,0,5.3,0,8,0c2.1,0.3,4.1,0.5,6.2,0.9c6.9,1.3,13.4,3.6,19.4,7.1
		c4.5,2.6,8.6,5.8,12.2,9.5c4.5,4.6,8.2,9.7,11,15.6c2.6,5.5,4.5,11.3,5.2,17.4c0.2,1.4,0.5,2.9,0.7,4.3c0,2.7,0,5.3,0,8
		c-0.2,1.4-0.5,2.8-0.7,4.2c-0.6,5.6-2.3,10.8-4.5,16c-2,4.6-4.7,8.9-7.8,12.8c-3.9,4.8-8.4,8.9-13.5,12.2c-5.7,3.8-11.9,6.5-18.6,8
		c-5,1.1-10,1.6-15,2.4c-6,0.9-12,1.8-17.8,3.6c-4.1,1.2-8,2.7-11.5,5.1c-2.1,1.5-4,3.2-5.9,4.9c-5.4,4.7-11.4,6.1-18.3,4
		c-0.6-0.2-1-0.3-1.5,0.3c-6.6,6.7-13.3,13.3-19.9,19.9c-0.5,0.5-0.5,0.9,0,1.4c4,4.4,5.4,9.7,4.4,15.5c-1,5.7-4,10.3-9.4,12.9
		c-2.1,1-4.5,1.6-6.8,2.3c-1.2,0-2.5,0-3.8,0c-2.2-0.7-4.5-1.2-6.5-2.2c-6.2-3.1-9.4-8.4-9.8-15.3c-0.1-1.1,0-2.2,0-3.4
		c-0.6,0-1,0-1.5,0c-8.9,0.5-16.5-5-18.8-13.7c-0.2-0.9-0.4-1.8-0.7-2.6C20.3,155.1,20.3,153.9,20.3,152.6z M201,64.7
		c-0.1-8.5-1.9-16.4-5.7-23.8c-2.9-5.7-6.8-10.6-11.6-14.9c-4.4-3.9-9.3-7-14.7-9.2c-4.9-2-10-3.1-15.2-3.6c-9.7-0.8-19,1-27.6,5.5
		c-7.9,4-14.4,9.8-19.4,17.3c-4.1,6.2-6.8,13-7.9,20.3c-0.7,4.5-1.1,9.1-1.9,13.6c-1.1,5.6-2.3,11.2-3.8,16.8
		c-0.9,3.2-2.4,6.4-3.8,9.4c-1.8,3.8-4.5,7-7.4,10c-5.3,5.4-3.5,15.3,4.2,17.9c2,0.7,3.2,1.9,3.8,3.9c1.2,3.8,4,6,7.7,6.9
		c3.8,0.9,7.5,0.1,10.3-2.9c6.6-6.8,15-10.3,24.1-12.5c3.1-0.7,6.3-1.3,9.4-1.8c4.6-0.8,9.1-1.5,13.7-2.1c7.4-0.9,14.3-3.1,20.7-6.9
		c8.9-5.4,15.6-12.8,20.1-22.2C199.3,79.4,200.7,72.1,201,64.7z M48.5,175.4c-0.1,2.5,0.8,4.9,2.5,6.9c3,3.5,7.5,4.9,11.8,3.4
		c4.4-1.5,6.9-4.6,7.5-9.2c0.5-4.3-1.1-7.9-4.8-10.3c-2.7-1.8-2.8-4.7-0.8-6.7c7.3-7.1,14.4-14.3,21.6-21.5c0.7-0.7,0.8-1.1,0.1-1.9
		c-1.1-1.3-1.8-2.8-2.8-4.2c-0.4-0.6-0.9-1.1-1.5-1.5c-1.5-1-3.1-2-4.5-3c-0.6-0.5-1-0.5-1.5,0c-0.8,0.9-1.7,1.7-2.5,2.6
		c-6.5,6.5-13,13.1-19.6,19.6c-1.3,1.3-3.2,1.6-4.7,0.6c-0.8-0.6-1.5-1.5-2.1-2.4c-1.8-2.2-4.1-3.6-6.8-4c-4.4-0.6-8.1,0.8-10.7,4.5
		c-2.6,3.7-2.8,7.7-0.7,11.6c2.4,4.5,7.6,6.6,12.6,5.2c2.1-0.6,3.6-1.9,5.3-3.1c1.7-1.2,3.8-0.7,4.9,0.9c1.1,1.6,0.9,3.3-0.7,5.1
		C49.4,170.1,48.4,172.5,48.5,175.4z"/>
	<path class="st1" d="M193.5,69.1c-0.6,2.8-1.1,5.6-1.9,8.4c-1.6,5.2-4.1,10-7.6,14.3c-4.4,5.5-9.8,9.8-16.3,12.7
		c-3.8,1.7-7.8,2.8-11.9,3.5c-1.6,0.3-3.6-1-4.1-2.6c-0.5-1.9,0.3-3.7,2.1-4.3c1.8-0.6,3.6-0.9,5.4-1.4c4.8-1.2,9.1-3.5,13-6.6
		c5.2-4.1,9.1-9.2,11.4-15.4c1-2.6,1.5-5.4,2.1-8.2c0.3-1.3,0.4-2.8,1.6-3.7c1.2-0.9,2.5-1.1,3.9-0.4
		C192.6,66.1,193.3,67.4,193.5,69.1z"/>
	<path class="st1" d="M126.8,39.4c0,1.9-1.8,3.7-3.7,3.6c-1.9-0.1-3.5-1.7-3.6-3.6c0-1.9,1.7-3.7,3.6-3.7
		C125.1,35.7,126.8,37.4,126.8,39.4z"/>
	<path class="st1" d="M145.1,28.4c2,0,3.6,1.6,3.7,3.6c0,2-1.5,3.6-3.6,3.7c-1.9,0-3.7-1.6-3.7-3.6
		C141.5,30.1,143.2,28.4,145.1,28.4z"/>
	<path class="st1" d="M192.8,54c0,2-1.6,3.7-3.6,3.6c-2,0-3.7-1.8-3.6-3.7c0-1.9,1.7-3.6,3.6-3.6C191.2,50.4,192.8,52,192.8,54z"/>
	<path class="st1" d="M134.1,61.4c0,2-1.6,3.7-3.6,3.7c-1.9,0-3.7-1.8-3.7-3.7c0-1.9,1.7-3.6,3.6-3.6
		C132.4,57.7,134.1,59.3,134.1,61.4z"/>
</g>
<g class="st0">
	<path class="st1" d="M69.2,193.7c-4-2.8-8.3-5.4-12.1-8.4c-7.4-5.9-13.3-13.3-17.7-21.7c-1.2-2.3-2.3-4.6-3.4-6.9
		c-0.8-1.7-0.3-3.4,1.3-4.1c1.4-0.6,3,0.1,3.7,1.8c3,6.9,6.8,13.3,11.7,18.9c5.1,5.9,11,10.7,17.6,14.6c0.3,0.2,0.8,0.2,1.2,0.2
		c15.1,0,30.2,0,45.4,0c0.4,0,0.8,0,1.1-0.2c2.4-1.6,4.8-3.2,7.2-4.9c0.3-0.2,0.6-0.8,0.6-1.2c0-3.1,0.1-6.3,0-9.4
		c-0.3-4.5,1.8-7.4,5.7-9.3c2.5-1.3,4.9-2.7,7.3-4.2c0.4-0.2,0.6-0.9,0.6-1.4c0.1-3.1,0.1-6.2,0-9.2c0-3.6,1.4-6.3,4.6-8.1
		c2.7-1.5,5.4-3,8.1-4.6c0.4-0.2,0.8-0.8,0.8-1.2c0.2-2.4,0.3-4.8,0.5-7.2c0.1-0.8-0.2-1.2-1-1.1c-0.4,0-0.7,0-1.1,0
		c-38,0-76,0-114,0c-0.2,0-0.5,0-0.7,0c-1.1-0.1-1.5,0.2-1.5,1.4c0.1,5.1,0.9,10,2,14.9c0.3,1.5-0.6,3-2.1,3.3
		c-1.5,0.3-2.8-0.6-3.2-2c-0.3-1.5-0.7-2.9-1-4.4c-1-5.3-1.6-10.6-1.2-16c0.9-11.6,5.9-20.9,15.6-27.6c0.9-0.6,1.3-1.2,1.3-2.4
		c-0.1-2.1-0.1-4.2,0-6.4c0-0.8-0.2-1.2-1-1.5c-2.4-0.9-3.8-2.8-3.8-5.4c0-4,0-7.9,0-11.9c0-3.3,2.5-5.7,5.7-5.9c0.2,0,0.4,0,0.6,0
		c30.8,0,61.6,0,92.4,0c2.8,0,5,1.2,6.1,3.9c0.3,0.7,0.3,1.5,0.4,2.3c0,3.7,0,7.3,0,11c0,2.9-1.3,5-4.1,6.1c-0.3,0.1-0.6,0.7-0.6,1
		c-0.1,2.4-0.1,4.8,0,7.2c0,0.6,0.6,1.4,1.1,1.8c4,2.7,7.3,6.1,9.9,10.1c4.1,6.3,5.9,13.3,5.7,20.8c-0.1,2.5-0.2,4.9-0.4,7.4
		c-0.1,0.8,0.2,1.2,0.9,1.5c3.1,1.7,6.1,3.3,9.1,5.2c2.7,1.7,3.8,4.2,3.8,7.4c0,3.2,0,6.3,0,9.5c0,0.9,0.3,1.3,1.1,1.8
		c3.1,1.8,6.2,3.6,9.2,5.4c2.3,1.4,3.3,3.6,3.4,6.2c0.1,3.4,0.1,6.8,0,10.2c-0.1,3.2-1.8,5.5-4.6,7.1c-2.5,1.4-5,2.9-7.6,4.3
		c-0.8,0.5-1.7,0.8-2.5,1.2c-1.1,0-2.2,0-3.3,0c-0.9-0.4-1.9-0.7-2.7-1.2c-2.8-1.6-5.6-3.3-8.4-4.9c-0.7-0.4-1.3-0.4-1.9,0
		c-3.7,2.1-7.4,4.1-11.1,6.2c-1.1,0-2.2,0-3.3,0c-0.9-0.4-1.8-0.8-2.7-1.3c-2.5-1.4-5.1-2.8-7.5-4.3c-1.1-0.7-1.8-0.6-2.8,0.1
		c-2.7,1.9-5.5,3.7-8.3,5.5C102.5,193.7,85.9,193.7,69.2,193.7z M35.4,120.5c0.8,0,1.4,0,2,0c37.8,0,75.7,0,113.5,0
		c0.4,0,0.9,0.1,1.2,0c0.3-0.1,0.7-0.6,0.6-0.9c-0.6-3.2-1.6-6.3-3.2-9.1c-2.4-4.3-5.7-7.9-9.8-10.5c-2.2-1.4-3.3-3.4-3.2-6
		c0-2.2,0-4.4,0-6.6c0-1.1-0.2-1.5-1.5-1.5c-9,0.1-17.9,0.1-26.9,0c-1.2,0-1.4,0.4-1.4,1.4c0,3.7,0.1,7.3,0,11
		c-0.1,4.3-3.2,8.3-7.1,9.2c-4.7,1.1-9.1-0.8-11.1-5.2c-0.7-1.5-0.8-3.3-1.1-4.9c-0.4-1.9-1.7-3.1-3.6-3.2c-2.5-0.1-4.2,1.4-4.3,4.1
		c-0.1,2.6,0,5.2,0,7.7c0,2.1-0.5,4.1-1.6,5.9c-2,3.1-6.2,4.8-9.9,4c-3.8-0.8-7-4.1-7.4-7.8c-0.2-1.7-0.2-3.3-0.2-5
		c0-5.3,0-10.7,0-16c0-0.5,0.2-1.3-0.7-1.3c-2.6,0-5.1,0-7.8,0c0,0.6-0.1,1-0.1,1.5c0,2.2,0,4.3,0,6.5c0,2.6-1,4.6-3.2,6.1
		c-3.2,2-5.9,4.6-8.1,7.7C37.9,111.3,36.2,115.5,35.4,120.5z M83.7,67.8c-5.5,0-10.9,0-16.4,0c-1,0-1.4,0.3-1.4,1.4
		c0,12.2,0,24.5,0,36.7c0,0.9,0.2,1.9,0.6,2.6c0.9,1.6,2.7,2.3,4.3,1.9c1.8-0.4,3-1.8,3.1-3.7c0.1-2.5,0-4.9,0.1-7.4
		c0.1-1.4,0.2-2.8,0.5-4.2c1.1-4,4.7-6.6,9-6.6c4.2,0,7.9,2.7,9,6.7c0.3,1.2,0.4,2.5,0.7,3.8c0.3,1.4,1.2,2.4,2.5,2.8
		c2.9,1,5.5-1,5.5-4.3c0-9.5,0-19,0-28.5c0-1.2-0.5-1.4-1.5-1.4C94.5,67.8,89.1,67.8,83.7,67.8z M106.9,80.2c0.4,0,0.6,0.1,0.8,0.1
		c10.8,0,21.7,0,32.5,0c0.9,0,1.1-0.4,1.1-1.2c0-3.1,0-6.2,0-9.4c0-1.9,0-1.9-1.8-1.9c-9.3,0-18.6,0-27.9,0c-1.2,0-2.5,0-3.7,0
		c-0.6,0-0.9,0.2-0.9,0.9C106.9,72.5,106.9,76.3,106.9,80.2z M158.5,175.9c0,1.8,0,3.7,0,5.5c0,0.4,0.3,1,0.6,1.2
		c2.9,1.8,5.9,3.5,8.9,5.2c0.9,0.5,1.8,0.5,2.7,0c2.6-1.5,5.2-3,7.8-4.4c1.2-0.7,1.9-1.7,1.9-3.3c-0.1-2.8-0.1-5.6,0-8.4
		c0-1.4-0.5-2.3-1.6-3c-2.8-1.7-5.7-3.3-8.5-4.9c-0.4-0.2-1.1-0.2-1.5,0c-3.1,1.7-6.1,3.5-9.2,5.2c-0.8,0.5-1.1,1-1,1.9
		C158.6,172.6,158.5,174.3,158.5,175.9z M166.7,152.8c0-1.6,0-3.2,0-4.7c0-1.4-0.5-2.4-1.8-3.1c-2.5-1.4-5-2.9-7.5-4.4
		c-1.1-0.6-2.2-0.6-3.3,0c-2.3,1.3-4.6,2.7-6.9,4c-1.3,0.7-2.4,1.6-2.4,3.3c0,3.2,0,6.5,0,9.7c0,0.5,0.4,1.1,0.8,1.4
		c3.1,1.9,6.2,3.7,9.4,5.4c0.4,0.2,1.2,0.2,1.6,0c3.1-1.7,6.1-3.5,9.1-5.3c0.5-0.3,0.9-1,0.9-1.5C166.8,156,166.7,154.4,166.7,152.8
		z M153,176c0-1.8,0-3.6,0-5.4c0-0.4-0.2-1-0.6-1.2c-3.2-1.9-6.4-3.8-9.7-5.6c-0.3-0.2-1-0.2-1.3,0c-2.7,1.5-5.3,3.1-8.1,4.6
		c-1.7,0.9-2.3,2.1-2.2,3.9c0.1,2.7,0.1,5.3,0,8c0,1.5,0.6,2.4,1.8,3c2.5,1.5,5.1,2.9,7.7,4.4c1.1,0.6,2,0.6,3,0
		c2.8-1.6,5.5-3.3,8.3-4.8c0.9-0.5,1.1-1,1.1-2C153,179.3,153,177.6,153,176z M47.1,80.1c0.3,0.1,0.4,0.2,0.5,0.2c4,0,8,0,12,0
		c0.8,0,0.9-0.4,0.9-1c0-3.4,0-6.8,0-10.2c0-0.8-0.3-1.2-1.1-1.2c-3.7,0-7.3,0-11,0c-1,0-1.3,0.4-1.2,1.3c0.1,1.9,0,3.7,0,5.6
		C47.1,76.6,47.1,78.3,47.1,80.1z"/>
	<path class="st1" d="M89.7,5.7c2.3,0.8,4.4,1.7,5.8,3.9c0.6,0.9,1,2,1.6,2.9c1.1-0.2,2.3-0.5,3.5-0.5c4.3-0.1,7.9,2.7,8.9,6.9
		c0.2,1,0.6,1.1,1.5,1.1c3.2,0,6.3,0,9.5,0c1.3,0,2.2,0.7,2.7,1.9c0.4,1.1,0.2,2.2-0.8,2.9c-0.6,0.4-1.4,0.7-2.2,0.7
		c-3.4,0.1-6.7,0-10.3,0c0,1.7,0,3.4,0,5.2c21.4,0,42.7,0,64.1,0c-0.1-1.7-0.2-3.3-0.3-5.2c-0.4,0-0.9,0-1.4,0
		c-12.9,0-25.8,0-38.7,0c-2.1,0-3.2-0.9-3.2-2.7c0-1.5,1-2.6,2.5-2.8c0.5,0,0.9,0,1.4,0c13.6,0,27.2,0,40.7,0c0.9,0,1.6-0.3,2.3-1
		c3.9-4.1,9.6-4.9,14.8-2.3c4.4,2.2,7.1,7.8,6.3,12.9c-1.5,9.2-12.5,13.5-19.8,7.7c-1-0.8-2-1.2-3.4-1.2c-21.3,0-42.6,0-63.9,0
		c-1.1,0-1.7,0.2-2,1.5c-1.2,4.9-6.2,7.6-11.1,6.3c-0.4-0.1-0.9-0.2-1.3-0.3c-2,6.5-9.3,9.2-15.2,4.4c-1.9,1.6-4,2.5-6.6,2.4
		c-3.6-0.2-7-2.4-8.1-5.8c-0.3-0.9-0.6-1-1.5-0.8c-4.5,1.2-8.5-0.4-10.6-4.5c-0.7-1.4-1-3.1-1.1-4.7c-0.1-4.4,0-8.8-0.1-13.2
		c0-7.2,6.6-11.2,12.2-9c0.2,0.1,0.8-0.1,0.8-0.3c1-3.3,3.3-5.3,6.6-6.2c0.1,0,0.2-0.1,0.3-0.2c1.2,0,2.3,0,3.5,0
		c1.6,0.8,3.2,1.5,4.6,2.2c1.6-0.7,3.1-1.5,4.7-2.2C87.5,5.7,88.6,5.7,89.7,5.7z M91.6,28.2C91.6,28.2,91.6,28.2,91.6,28.2
		c0-4.5,0-8.9,0-13.4c0-2.3-1.7-3.8-3.8-3.6c-1.9,0.1-3.2,1.7-3.2,3.9c0,6.7,0,13.3,0,20c0,2.1,0,4.2,0,6.4c0.1,2.2,1.5,3.6,3.7,3.5
		c2,0,3.3-1.4,3.3-3.7C91.6,36.9,91.6,32.6,91.6,28.2z M72,28.1C72,28.1,72,28.1,72,28.1c0,3,0,5.9,0,8.9c0,1.5,0,3,0,4.5
		c0.1,2.4,1.8,3.8,4.2,3.5c1.8-0.2,2.9-1.8,2.9-4c0-8.5,0-17.1,0-25.6c0-0.3,0-0.6,0-0.9c-0.2-2.1-2-3.5-4-3.3
		C73.3,11.4,72,13,72,15C71.9,19.4,72,23.7,72,28.1z M193,27.7c0-3.8-3-6.9-6.8-7c-3.8,0-6.9,3.1-6.9,6.8c0,3.8,3.1,6.9,6.9,6.9
		C189.9,34.5,192.9,31.5,193,27.7z M59.3,28.2c0,2.3,0,4.6,0,6.9c0,1.7,1.1,3.2,2.4,3.6c1.6,0.5,3.3,0,4.1-1.4
		c0.4-0.8,0.6-1.8,0.6-2.7c0.1-4.2,0-8.5,0-12.7c0-0.6-0.1-1.2-0.2-1.7c-0.3-1.4-1.6-2.5-3.1-2.6c-2.2-0.1-3.8,1.5-3.8,4
		C59.3,23.7,59.3,25.9,59.3,28.2z M104.2,28.2C104.2,28.2,104.2,28.2,104.2,28.2c0-2.2,0.1-4.5,0-6.7c0-0.9-0.3-1.8-0.7-2.6
		c-0.8-1.3-2.4-1.8-3.7-1.4c-1.6,0.5-2.6,1.9-2.6,3.8c0,4.5,0,9,0,13.5c0,0.8,0.3,1.7,0.6,2.4c0.8,1.4,2.4,1.9,4,1.4
		c1.3-0.4,2.4-1.7,2.4-3.4C104.3,32.9,104.2,30.5,104.2,28.2z"/>
</g>
<g class="st0">
	<path class="st1" d="M44.6,194.2c-1.6-0.7-3.2-1.3-4.6-2.2c-3.1-2-4.6-5.1-4.8-8.7c-0.2-3.5-0.1-7.1,0-10.6c0-1.7,1.2-2.9,2.8-2.9
		c1.6,0,2.7,1.1,2.7,2.9c0,3.2,0,6.5,0,9.7c0,3.7,2.6,6.3,6.2,6.3c11.4,0,22.8,0,34.2,0c3.5,0,6.1-2.6,6.1-6c0-10,0-20.1,0-30.1
		c0-0.3-0.1-0.6-0.1-1c-1,0.2-1.8,0.3-2.7,0.5c-7.6,1.8-15.3,3.5-22.9,5.3c-6.2,1.4-12.4,2.8-18.6,4.2c-1.4,0.3-2.7,0.6-4.1,1
		c-2,0.5-3.6-0.8-3.6-2.8c0-0.5,0-0.9,0-1.4c0-27.1,0-54.2,0-81.3c0-8.6,2.9-15.8,9.2-21.6c4.6-4.3,6.7-9.7,6.9-15.9
		c0-0.2,0-0.4,0-0.6c0.2-2.2-0.2-3.8-2.3-5.4C44.1,30,45,22.4,50.2,19.2c0.8-0.5,1-1,1-1.8c0-1.5,0-3,0-4.5c0-2.9,1.4-4.3,4.4-4.4
		c2.8-0.1,5.7,0,8.5,0c2.7,0,5.3,0,8,0c3.2,0,4.5,1.5,4.6,4.6c0,0.6,0.1,1.3,0,1.9c-0.3,2.2,0.3,3.7,2.3,5.3
		c4.8,3.8,3.9,11.4-1.3,14.5c-0.4,0.2-0.9,0.7-0.8,1.1c0.1,2.9,0.1,5.7,0.4,8.6c0.4,3.2,2.3,5.8,4.3,8.3c2.2,2.8,4.6,5.5,6.7,8.4
		c3.2,4.5,4.6,9.7,4.6,15.2c0,0.4,0,0.7,0.1,1.1c4.8-4.3,8.9-8.8,10.1-15.3c0.3-1.5,0.3-3.1,0.3-4.7c0-12,0-24.1,0-36.1
		c0-1.7,0.2-3.2,1.6-4.4c0.3-0.2,0.4-0.8,0.4-1.2c0-1.7,0-3.4,0-5.1c0-2.6,1.7-4.2,4.2-4.2c4.4,0,8.8,0,13.2,0c2.4,0,4.1,1.6,4.1,4
		c0,1.8,0,3.6,0,5.4c0,0.4,0.2,1,0.5,1.3c1.1,1,1.4,2.2,1.4,3.6c0,5.1,0,10.2,0,15.2c0,7.1,0.1,14.1,0,21.2
		c-0.1,7,2.4,12.8,7.6,17.6c3.7,3.4,6.2,7.6,7.4,12.5c0.1,0.2,0.2,0.5,0.3,0.7c0.1,0,0.2,0,0.3,0c2.1-2.2,4.2-4.3,6.1-6.6
		c3.4-4.1,4.8-9,4.8-14.3c0-14.4,0-28.8,0-43.2c0-2,0.2-3.8,1.6-5.3c1.4-1.6,3.2-2.3,5.3-2.3c5.7,0,11.4-0.1,17.1,0
		c4.3,0.1,6.9,2.8,6.9,7.1c0,8.6,0,17.1,0,25.7c0,2.3-1.6,3.6-3.6,2.9c-1.2-0.4-1.8-1.4-1.8-3.1c0-3.2,0-6.4,0-9.6
		c0-0.4,0-0.7-0.1-1.2c-6.6,0-13.2,0-19.9,0c0,0.6-0.1,1.1-0.1,1.7c0,9.1,0,18.2,0,27.3c0,6.1-1.6,11.7-5.2,16.6
		c-1.5,2-3.3,3.7-5,5.5c-3,3.2-4.8,6.9-5.5,11.2c-0.1,0.9-0.2,1.8-0.4,2.7c-0.1,0.7,0.3,1,0.9,1.2c5.2,1.5,10.3,3.1,15.5,4.7
		c2.3,0.7,4.5,1.3,6.8,2.1c3.1,1.1,5.9,0,8.7-0.9c4.8-1.4,9.6-2.9,14.4-4.4c1.7-0.5,3.4-1.1,5.1-1.6c0.7-0.2,0.8-0.7,0.7-1.4
		c-0.5-5.5-2.4-10.4-6.4-14.3c-3.3-3.2-6.2-6.7-7.7-11.1c-0.9-2.7-1.4-5.5-1.8-8.4c-0.3-2.1-0.1-4.3-0.1-6.5c0-1.4,0.8-2.4,2-2.8
		c1.2-0.4,2.2,0,2.9,1c0.4,0.6,0.5,1.5,0.6,2.2c0.2,2.9,0.1,5.9,0.5,8.8c0.7,4.7,3.1,8.7,6.6,12c6,5.6,9,12.5,9,20.7
		c0,25.9,0,51.8,0,77.8c0,4.9-2.2,8.6-6.6,10.8c-0.9,0.5-1.9,0.8-2.9,1.1c-14.7,0-29.5,0-44.2,0c-1-0.4-2.1-0.7-3.1-1.2
		c-1.3-0.8-2.5-1.7-3.7-2.6c-0.6,0.5-1.1,1.1-1.8,1.5c-1.6,0.8-3.2,1.5-4.9,2.3c-12.8,0-25.6,0-38.4,0c-1.6-0.8-3.3-1.4-4.9-2.3
		c-0.7-0.4-1.3-1.1-1.9-1.6c-0.7,0.6-1.3,1.3-2,1.7c-1.5,0.8-3.1,1.5-4.6,2.2C70.4,194.2,57.5,194.2,44.6,194.2z M123.3,51.5
		c-0.4,0-0.6,0-0.8,0c-4.1,0.7-8.1,1.4-12.2,2c-1.3,0.2-1.8,0.8-1.6,2.1c0.1,0.9,0,1.7,0,2.6c-0.1,7.6-2.7,14.2-8.2,19.4
		c-3.6,3.4-6.2,7.3-7.3,12.2c-0.5,2.3-0.7,4.6-0.4,6.9c0.6,0,1.1,0,1.6,0c5.8,0,11.6,0,17.3,0c4.8,0.1,8.5,3.8,8.5,8.3
		c0,2.7,0,5.5,0,8.2c0,0.5-0.1,1.1-0.4,1.5c-0.7,1.2-1.9,1.6-3.1,1.3c-1.1-0.3-1.9-1.4-2-2.7c0-2.5,0-4.9,0-7.4c0-2.6-1-3.7-3.7-3.7
		c-5.7,0-11.3,0-17,0c-0.4,0-0.9,0.1-1.3,0.1c0,22,0,43.9,0,65.8c0.2,0.1,0.3,0.1,0.3,0.1c6.3,0,12.6,0,18.8,0c0.7,0,1.6-0.5,2-1
		c0.5-0.8,0.8-1.8,0.8-2.7c0-12.3,0-24.6,0.1-36.9c0-0.7,0.1-1.5,0.4-2.2c0.5-1.1,1.9-1.6,2.9-1.3c1.4,0.4,2.1,1.4,2.1,3.1
		c0,12.6-0.1,25.3,0,37.9c0,5-4.2,8.8-8.9,8.7c-5.7-0.1-11.5,0-17.2,0c-0.5,0-1,0-1.5,0c0,3,0,5.8,0,8.6c0,4,2.4,6.4,6.4,6.4
		c11.2,0,22.3-0.1,33.5,0c3.8,0,6.7-2.9,6.7-6.7c-0.1-29.1,0-58.2,0-87.4c0-6.4-2.3-11.7-6.9-16.2c-1.8-1.8-3.6-3.8-5-6
		c-2.9-4.4-4.1-9.3-4.1-14.5C123.3,55.8,123.3,53.7,123.3,51.5z M144.7,109.7c0,0.6,0,1,0,1.4c0,23.7,0,47.3,0,71
		c0,3.8,2.9,6.7,6.6,6.6c12.9-0.1,25.9-0.1,38.8,0c4,0,6.8-3.1,6.8-6.8c-0.1-23.6,0-47.2,0-70.8c0-0.4,0-0.9,0-1.4
		c-0.3,0-0.6,0-0.8,0c-6.5,2-13,3.9-19.5,6c-3.2,1-6.4,1.6-9.8,0.6c-6.3-1.9-12.6-3.9-18.9-5.8C146.9,110.3,145.9,110.1,144.7,109.7
		z M40.7,99.5c0,19.1,0,37.9,0,56.9c4.6-1,9.1-2,13.7-3c5.1-1.2,10.2-2.4,15.3-3.6c5.4-1.2,10.8-2.4,16.3-3.6c1-0.2,1.3-0.6,1.3-1.7
		c0-18.1,0-36.1,0-54.2c0-0.4-0.1-0.9-0.1-1.4C71.5,92.5,56.1,96,40.7,99.5z M40.7,93.8c0.5-0.1,0.9-0.1,1.4-0.2
		c3.6-0.8,7.3-1.6,10.9-2.5c4.2-1,8.5-1.9,12.7-2.9c2.7-0.6,5.5-1.2,8.2-1.9c4.1-0.9,8.2-1.9,12.2-2.8c0.8-0.2,1-0.5,1-1.3
		c0-2.4,0-4.7,0-7.1c0.1-4-1.2-7.6-3.6-10.8c-2.2-2.8-4.5-5.5-6.7-8.3c-2.7-3.4-4.7-7.1-5.3-11.5c-0.3-2.5-0.4-5-0.6-7.6
		c0-0.7-0.1-1.2-1-1.2c-4.2,0-8.3,0-12.5,0c-0.8,0-1,0.3-1,1c-0.1,2-0.1,3.9-0.3,5.8c-0.5,6-3,11-7,15.4c-2,2.2-4,4.3-5.7,6.7
		c-2.5,3.5-2.9,7.7-3,11.9c-0.1,5.4,0,10.8,0,16.2C40.6,93.1,40.7,93.4,40.7,93.8z M108.8,48c0.2,0,0.4,0.1,0.5,0.1
		c4.3-0.7,8.6-1.4,12.9-2.2c0.8-0.1,1.1-0.5,1.1-1.4c0-7.2,0-14.3,0-21.5c0-1.1-0.3-1.4-1.4-1.4c-3.9,0.1-7.8,0.1-11.7,0
		c-1.2,0-1.5,0.4-1.5,1.5c0,7.9,0,15.7,0,23.6C108.7,47.2,108.7,47.6,108.8,48z M180.8,32.4c0-3,0-5.9,0-8.8c0-1.6-0.3-1.9-1.9-1.9
		c-2.9,0-5.7,0-8.6,0c-2.6,0-5.2,0-7.7,0c-0.8,0-1.6,0-1.7,1.1c0,3.2,0,6.4,0,9.6C167.5,32.4,174,32.4,180.8,32.4z M63.8,30.3
		C63.8,30.3,63.8,30.3,63.8,30.3c3.2,0,6.3,0,9.5,0c1.9,0,3.3-1.7,3.3-3.5c0-1.9-1.3-3.2-3.2-3.2c-6.2,0-12.4,0-18.6,0
		c-0.6,0-1.3,0.1-1.8,0.4c-1.3,0.8-1.8,2.4-1.3,4c0.4,1.4,1.5,2.2,3.2,2.2C57.8,30.3,60.8,30.3,63.8,30.3z M56.7,14.1
		c0,1.2-0.1,2.2,0,3.3c0,0.3,0.5,0.7,0.8,0.7c4.3,0,8.6,0,12.8,0c0.3,0,0.7-0.4,0.8-0.7c0.1-1.1,0-2.1,0-3.3
		C66.3,14.1,61.5,14.1,56.7,14.1z M110.6,12c0,0.6,0,1.1,0,1.6c0,2.5,0,2.5,2.5,2.5c2,0,4.1,0,6.1,0c0.7,0,1.3,0,2,0
		c0-1.5,0-2.8,0-4.2C117.7,12,114.2,12,110.6,12z"/>
	<path class="st1" d="M170.7,99.2c-1.9,0-3.7,0-5.6,0c-1.9,0-3.2-1.1-3.2-2.7c0-1.7,1.2-2.8,3.2-2.8c3.8,0,7.7,0,11.5,0
		c2,0,3.1,1.1,3.1,2.8c0,1.7-1.2,2.8-3.2,2.8C174.6,99.2,172.6,99.2,170.7,99.2z"/>
	<path class="st1" d="M156.1,152.3c0-6.7,0.9-12,3.3-16.9c1.5-3.1,3.5-5.7,6.5-7.5c3.6-2.2,8.7-1.5,12,1.7c2.8,2.8,4.6,6.1,5.7,9.9
		c1.8,5.6,2.1,11.3,1.3,17c-0.7,5.2-2.2,10.1-5.6,14.3c-5.3,6.5-12.8,6.2-17.8-0.5C157.4,164.7,156.2,158,156.1,152.3z M161.4,151.1
		c0.3,2.5,0.5,5.1,1,7.6c0.6,3.2,1.8,6.2,3.9,8.7c2.7,3.4,6.1,3.3,8.9,0c1.8-2.2,2.9-4.7,3.6-7.4c1.4-5.3,1.5-10.8,0.4-16.2
		c-0.7-3.4-1.9-6.7-4.3-9.4c-2.2-2.5-4.9-3-7.2-1c-1.1,0.9-2.1,2.2-2.8,3.4C162.4,141.2,161.6,146.1,161.4,151.1z"/>
	<path class="st1" d="M78.1,132c-0.5,6.9-6.4,12.6-13.7,12.6c-7.9,0-13.9-6.1-14.1-13.7c0-1.7,1-2.9,2.5-3.1c1.4-0.2,2.7,1,2.9,2.6
		c0.3,1.9,0.5,3.7,1.8,5.3c2.2,2.7,5.6,3.9,9.1,3c3.1-0.8,5.5-3.6,5.9-6.9c0.1-0.9,0.3-1.9,0.7-2.7c0.5-1,1.5-1.5,2.6-1.2
		c1.1,0.3,2,0.9,2.1,2.1C78.2,130.7,78.1,131.3,78.1,132z"/>
	<path class="st1" d="M78.4,113.5c-0.2,0.9-0.2,1.9-0.6,2.7c-0.5,1-1.6,1.5-2.8,1.2c-1.2-0.3-2.1-1.1-2.2-2.4
		c-0.2-1.9-0.5-3.7-1.7-5.2c-2.2-2.9-5.6-4.2-9.3-3.2c-3.1,0.8-5.8,4-5.9,7.1c0,1-0.3,2-0.9,2.8c-0.6,0.9-1.7,1.2-2.8,0.9
		c-1.2-0.4-1.9-1.4-1.9-2.8c0-2.7,0.7-5.3,2.3-7.5c3-4.4,7.2-6.6,12.5-6.3c5.6,0.3,9.6,3.3,11.9,8.3C77.7,110.5,77.9,112,78.4,113.5
		z"/>
</g>
<g>
	<path class="st2" d="M88.9,193.7c-1.6-0.4-3.3-0.7-4.9-1.3c-5.6-1.7-10.3-4.8-14.7-8.6c-5.8-5-10.7-10.8-15-17
		c-4.5-6.4-8.2-13.2-11.4-20.4c-3-6.7-5.3-13.7-6.8-20.9c-1.8-8.5-1.9-17.1-0.5-25.7c1.8-11,6.1-20.9,13.4-29.4
		c4.3-5,9.4-9.1,15.3-12.1c0.8-0.4,0.9-0.7,0.5-1.5c-2.7-4.6-4.4-9.7-5.4-14.9c-1-5.2-1.4-10.5-1.2-15.8c0.1-3.7,0.4-7.3,0.8-11
		c0.3-2.8,1.5-3.7,4.3-4.1c5.7-0.8,11.4-0.9,17.1-0.7c8.4,0.4,16.6,2.2,24,6.3c6.5,3.6,11.3,8.9,14.4,15.6c0.6,1.3,1.1,2.6,1.7,4
		c0.2-0.2,0.4-0.4,0.5-0.6c3.8-8.7,9.5-15.9,16.8-21.8c3.9-3.1,8-5.8,12.5-7.8c0.3-0.1,0.6-0.4,1-0.5c0.7,0,1.3,0,2,0
		c2.5,1.6,3.2,3.2,2.3,5.3c-0.6,1.4-2,1.8-3.2,2.4c-7.5,3.7-13.8,8.9-18.9,15.6c-3.3,4.3-5.8,9.1-7.4,14.2c-1.3,4.2-2.3,8.5-2.1,13
		c0,0.3,0.1,0.6,0.1,1c2.5-0.6,4.9-1.2,7.3-1.7c8.2-1.8,16.5-2.5,24.7-0.1c8.8,2.5,16.1,7.5,22.2,14.3c5.9,6.6,10,14.2,12.4,22.7
		c2.5,8.7,3.3,17.6,2.3,26.6c-0.9,7.6-2.9,15-5.7,22.1c-2.1,5.5-4.5,10.8-7.4,15.9c-6.3,11.3-13.9,21.6-24.4,29.5
		c-4.6,3.5-9.7,6.1-15.5,7c-0.3,0.1-0.6,0.2-0.9,0.3c-2.3,0-4.7,0-7,0c-0.3-0.1-0.6-0.2-0.9-0.3c-3.1-0.6-6.3-1.2-9.4-1.9
		c-3.7-0.9-7.4-1.5-11.2-0.8c-3,0.6-6,1.4-9,2c-1.8,0.4-3.7,0.6-5.5,1C93.6,193.7,91.2,193.7,88.9,193.7z M144.1,61.2
		c0.6,0.5,0.9,0.7,1.2,1c2,1.7,4.1,3.2,6,5.1c10.9,10.8,16.1,24.3,17.3,39.4c0.5,5.8,0.1,11.6-1,17.4c-1.2,6.1-2.9,11.9-5.1,17.7
		c-0.6,1.5-1.7,2.4-3.3,2.5c-2.8,0.1-4.5-2.6-3.4-5.4c2-5.2,3.5-10.5,4.6-16c1.6-8.2,1.4-16.3-0.3-24.4c-1.3-6-3.5-11.7-6.8-17
		c-4.8-7.7-11.2-13.7-19.6-17.4c-1.4-0.6-2.8-1-4.4-0.4c-1.4,0.5-3,0.8-4.5,1c-0.9,0.1-1.2,0.5-1.2,1.4c-0.1,1.5-0.2,3.1-0.4,4.6
		c-0.4,3.7-1.1,4.6-4.6,5c-3.2,0.4-6.4,0.7-9.6,0.8c-6.7,0.2-13.4-0.4-19.9-2.1c-6.4-1.6-12.4-4.3-17.4-8.7
		c-1.8-1.6-1.8-1.6-3.9-0.5C59.6,69,53.5,75.2,49,83c-4.7,8.3-6.8,17.4-7.1,26.8c-0.3,7.3,1.1,14.4,3.1,21.4
		c2.5,8.3,5.9,16.2,10.3,23.7c4.3,7.5,9.3,14.4,15.5,20.5c4,3.9,8.4,7.4,13.7,9.5c6.3,2.6,12.7,1.5,19-0.2c5.5-1.5,11-2.1,16.7-1
		c4.2,0.8,8.3,1.8,12.5,2.5c3.9,0.7,7.6,0,11.2-1.5c5.4-2.3,9.9-6,14-10.1c5.2-5.2,9.6-11,13.2-17.4c2.8-4.9,5.5-9.9,7.7-15.1
		c2.1-4.9,3.5-10,5.1-15.1c1.5-4.8,2.2-9.8,2.1-14.9c0-3.1-0.3-6.2-0.7-9.3c-0.8-7.1-3-13.7-6.5-19.9c-3.6-6.4-8.4-11.7-14.5-15.8
		C158.2,63.3,151.7,61.1,144.1,61.2z M115.8,62.9c0.1,0,0.3-0.1,0.4-0.1c0-2.9,0.1-5.9,0-8.8c-0.3-5.3-1.2-10.4-3-15.4
		c-3-8.2-8.3-14-16.4-17.2c-5.4-2.2-11-3.3-16.8-3.5c-4.7-0.2-9.4,0-14.1,0c-0.1,0.5-0.1,0.6-0.1,0.7c-1,9.8-0.7,19.4,2.5,28.8
		c3.2,9.4,9.7,15.4,19,18.5c5.7,1.9,11.6,2.5,17.6,2.8c1.9,0.1,3.8,0,5.7,0c-0.1-0.6-0.3-0.8-0.4-1c-6.8-6.8-13.5-13.5-20.3-20.3
		c-2.4-2.4-4.7-4.7-7-7.1c-1.3-1.3-1.3-3-0.3-4.5c0.9-1.4,2.7-2,4.3-1.2c1.1,0.5,2.1,1.5,2.9,2.4c7.2,7.2,14.5,14.4,21.7,21.7
		C113,60.1,114.4,61.5,115.8,62.9z"/>
	<path class="st2" d="M151.7,152.2c1.9,0,3.6,1.8,3.6,3.7c0,1.9-1.8,3.6-3.7,3.6c-2.1,0-3.6-1.6-3.6-3.8
		C148.1,153.7,149.7,152.2,151.7,152.2z"/>
</g>
</svg>
