<?xml version="1.0" encoding="utf-8"?>
<!-- Generator: Adobe Illustrator 27.1.1, SVG Export Plug-In . SVG Version: 6.00 Build 0)  -->
<svg version="1.1" id="Calque_1" xmlns="http://www.w3.org/2000/svg" xmlns:xlink="http://www.w3.org/1999/xlink" x="0px" y="0px"
	 viewBox="0 0 227.9 199.4" style="enable-background:new 0 0 227.9 199.4;" xml:space="preserve">
<style type="text/css">
	.st0{display:none;}
	.st1{display:inline;fill:#0B9778;}
	.st2{fill:#0B9778;}
</style>
<g class="st0">
	<path class="st1" d="M20.3,152.6c0.2-0.9,0.4-1.8,0.7-2.8c1.4-5.3,4.5-9.1,9.3-11.7c6.5-3.4,15-2.4,20.6,2.6c0.6,0.5,1,0.5,1.5-0.1
		c6.4-6.5,12.9-12.9,19.4-19.4c0.7-0.7,0.9-1.3,0.6-2.4c-1.4-4.5-1-8.8,0.9-13.1c1.2-2.8,3.3-4.8,5.2-7c2.6-2.9,4.6-6.3,6.1-9.9
		c2.6-6.1,3.9-12.4,4.8-18.9c0.8-5.6,1.6-11.1,2.5-16.6c1-6.2,3.2-12,6.2-17.5c4.7-8.4,11.1-15.3,19-20.6c4.1-2.7,8.5-4.9,13.2-6.5
		c4.7-1.6,9.5-2.6,14.4-3c0.3,0,0.6-0.1,0.8-0.2c2.7,0,5.3,0,8,0c2.1,0.3,4.1,0.5,6.2,0.9c6.9,1.3,13.4,3.6,19.4,7.1
		c4.5,2.6,8.6,5.8,12.2,9.5c4.5,4.6,8.2,9.7,11,15.6c2.6,5.5,4.5,11.3,5.2,17.4c0.2,1.4,0.5,2.9,0.7,4.3c0,2.7,0,5.3,0,8
		c-0.2,1.4-0.5,2.8-0.7,4.2c-0.6,5.6-2.3,10.8-4.5,16c-2,4.6-4.7,8.9-7.8,12.8c-3.9,4.8-8.4,8.9-13.5,12.2c-5.7,3.8-11.9,6.5-18.6,8
		c-5,1.1-10,1.6-15,2.4c-6,0.9-12,1.8-17.8,3.6c-4.1,1.2-8,2.7-11.5,5.1c-2.1,1.5-4,3.2-5.9,4.9c-5.4,4.7-11.4,6.1-18.3,4
		c-0.6-0.2-1-0.3-1.5,0.3c-6.6,6.7-13.3,13.3-19.9,19.9c-0.5,0.5-0.5,0.9,0,1.4c4,4.4,5.4,9.7,4.4,15.5c-1,5.7-4,10.3-9.4,12.9
		c-2.1,1-4.5,1.6-6.8,2.3c-1.2,0-2.5,0-3.8,0c-2.2-0.7-4.5-1.2-6.5-2.2c-6.2-3.1-9.4-8.4-9.8-15.3c-0.1-1.1,0-2.2,0-3.4
		c-0.6,0-1,0-1.5,0c-8.9,0.5-16.5-5-18.8-13.7c-0.2-0.9-0.4-1.8-0.7-2.6C20.3,155.1,20.3,153.9,20.3,152.6z M201,64.7
		c-0.1-8.5-1.9-16.4-5.7-23.8c-2.9-5.7-6.8-10.6-11.6-14.9c-4.4-3.9-9.3-7-14.7-9.2c-4.9-2-10-3.1-15.2-3.6c-9.7-0.8-19,1-27.6,5.5
		c-7.9,4-14.4,9.8-19.4,17.3c-4.1,6.2-6.8,13-7.9,20.3c-0.7,4.5-1.1,9.1-1.9,13.6c-1.1,5.6-2.3,11.2-3.8,16.8
		c-0.9,3.2-2.4,6.4-3.8,9.4c-1.8,3.8-4.5,7-7.4,10c-5.3,5.4-3.5,15.3,4.2,17.9c2,0.7,3.2,1.9,3.8,3.9c1.2,3.8,4,6,7.7,6.9
		c3.8,0.9,7.5,0.1,10.3-2.9c6.6-6.8,15-10.3,24.1-12.5c3.1-0.7,6.3-1.3,9.4-1.8c4.6-0.8,9.1-1.5,13.7-2.1c7.4-0.9,14.3-3.1,20.7-6.9
		c8.9-5.4,15.6-12.8,20.1-22.2C199.3,79.4,200.7,72.1,201,64.7z M48.5,175.4c-0.1,2.5,0.8,4.9,2.5,6.9c3,3.5,7.5,4.9,11.8,3.4
		c4.4-1.5,6.9-4.6,7.5-9.2c0.5-4.3-1.1-7.9-4.8-10.3c-2.7-1.8-2.8-4.7-0.8-6.7c7.3-7.1,14.4-14.3,21.6-21.5c0.7-0.7,0.8-1.1,0.1-1.9
		c-1.1-1.3-1.8-2.8-2.8-4.2c-0.4-0.6-0.9-1.1-1.5-1.5c-1.5-1-3.1-2-4.5-3c-0.6-0.5-1-0.5-1.5,0c-0.8,0.9-1.7,1.7-2.5,2.6
		c-6.5,6.5-13,13.1-19.6,19.6c-1.3,1.3-3.2,1.6-4.7,0.6c-0.8-0.6-1.5-1.5-2.1-2.4c-1.8-2.2-4.1-3.6-6.8-4c-4.4-0.6-8.1,0.8-10.7,4.5
		c-2.6,3.7-2.8,7.7-0.7,11.6c2.4,4.5,7.6,6.6,12.6,5.2c2.1-0.6,3.6-1.9,5.3-3.1c1.7-1.2,3.8-0.7,4.9,0.9c1.1,1.6,0.9,3.3-0.7,5.1
		C49.4,170.1,48.4,172.5,48.5,175.4z"/>
	<path class="st1" d="M193.5,69.1c-0.6,2.8-1.1,5.6-1.9,8.4c-1.6,5.2-4.1,10-7.6,14.3c-4.4,5.5-9.8,9.8-16.3,12.7
		c-3.8,1.7-7.8,2.8-11.9,3.5c-1.6,0.3-3.6-1-4.1-2.6c-0.5-1.9,0.3-3.7,2.1-4.3c1.8-0.6,3.6-0.9,5.4-1.4c4.8-1.2,9.1-3.5,13-6.6
		c5.2-4.1,9.1-9.2,11.4-15.4c1-2.6,1.5-5.4,2.1-8.2c0.3-1.3,0.4-2.8,1.6-3.7c1.2-0.9,2.5-1.1,3.9-0.4
		C192.6,66.1,193.3,67.4,193.5,69.1z"/>
	<path class="st1" d="M126.8,39.4c0,1.9-1.8,3.7-3.7,3.6c-1.9-0.1-3.5-1.7-3.6-3.6c0-1.9,1.7-3.7,3.6-3.7
		C125.1,35.7,126.8,37.4,126.8,39.4z"/>
	<path class="st1" d="M145.1,28.4c2,0,3.6,1.6,3.7,3.6c0,2-1.5,3.6-3.6,3.7c-1.9,0-3.7-1.6-3.7-3.6
		C141.5,30.1,143.2,28.4,145.1,28.4z"/>
	<path class="st1" d="M192.8,54c0,2-1.6,3.7-3.6,3.6c-2,0-3.7-1.8-3.6-3.7c0-1.9,1.7-3.6,3.6-3.6C191.2,50.4,192.8,52,192.8,54z"/>
	<path class="st1" d="M134.1,61.4c0,2-1.6,3.7-3.6,3.7c-1.9,0-3.7-1.8-3.7-3.7c0-1.9,1.7-3.6,3.6-3.6
		C132.4,57.7,134.1,59.3,134.1,61.4z"/>
</g>
<g>
	<path class="st2" d="M69.2,193.7c-4-2.8-8.3-5.4-12.1-8.4c-7.4-5.9-13.3-13.3-17.7-21.7c-1.2-2.3-2.3-4.6-3.4-6.9
		c-0.8-1.7-0.3-3.4,1.3-4.1c1.4-0.6,3,0.1,3.7,1.8c3,6.9,6.8,13.3,11.7,18.9c5.1,5.9,11,10.7,17.6,14.6c0.3,0.2,0.8,0.2,1.2,0.2
		c15.1,0,30.2,0,45.4,0c0.4,0,0.8,0,1.1-0.2c2.4-1.6,4.8-3.2,7.2-4.9c0.3-0.2,0.6-0.8,0.6-1.2c0-3.1,0.1-6.3,0-9.4
		c-0.3-4.5,1.8-7.4,5.7-9.3c2.5-1.3,4.9-2.7,7.3-4.2c0.4-0.2,0.6-0.9,0.6-1.4c0.1-3.1,0.1-6.2,0-9.2c0-3.6,1.4-6.3,4.6-8.1
		c2.7-1.5,5.4-3,8.1-4.6c0.4-0.2,0.8-0.8,0.8-1.2c0.2-2.4,0.3-4.8,0.5-7.2c0.1-0.8-0.2-1.2-1-1.1c-0.4,0-0.7,0-1.1,0
		c-38,0-76,0-114,0c-0.2,0-0.5,0-0.7,0c-1.1-0.1-1.5,0.2-1.5,1.4c0.1,5.1,0.9,10,2,14.9c0.3,1.5-0.6,3-2.1,3.3
		c-1.5,0.3-2.8-0.6-3.2-2c-0.3-1.5-0.7-2.9-1-4.4c-1-5.3-1.6-10.6-1.2-16c0.9-11.6,5.9-20.9,15.6-27.6c0.9-0.6,1.3-1.2,1.3-2.4
		c-0.1-2.1-0.1-4.2,0-6.4c0-0.8-0.2-1.2-1-1.5c-2.4-0.9-3.8-2.8-3.8-5.4c0-4,0-7.9,0-11.9c0-3.3,2.5-5.7,5.7-5.9c0.2,0,0.4,0,0.6,0
		c30.8,0,61.6,0,92.4,0c2.8,0,5,1.2,6.1,3.9c0.3,0.7,0.3,1.5,0.4,2.3c0,3.7,0,7.3,0,11c0,2.9-1.3,5-4.1,6.1c-0.3,0.1-0.6,0.7-0.6,1
		c-0.1,2.4-0.1,4.8,0,7.2c0,0.6,0.6,1.4,1.1,1.8c4,2.7,7.3,6.1,9.9,10.1c4.1,6.3,5.9,13.3,5.7,20.8c-0.1,2.5-0.2,4.9-0.4,7.4
		c-0.1,0.8,0.2,1.2,0.9,1.5c3.1,1.7,6.1,3.3,9.1,5.2c2.7,1.7,3.8,4.2,3.8,7.4c0,3.2,0,6.3,0,9.5c0,0.9,0.3,1.3,1.1,1.8
		c3.1,1.8,6.2,3.6,9.2,5.4c2.3,1.4,3.3,3.6,3.4,6.2c0.1,3.4,0.1,6.8,0,10.2c-0.1,3.2-1.8,5.5-4.6,7.1c-2.5,1.4-5,2.9-7.6,4.3
		c-0.8,0.5-1.7,0.8-2.5,1.2c-1.1,0-2.2,0-3.3,0c-0.9-0.4-1.9-0.7-2.7-1.2c-2.8-1.6-5.6-3.3-8.4-4.9c-0.7-0.4-1.3-0.4-1.9,0
		c-3.7,2.1-7.4,4.1-11.1,6.2c-1.1,0-2.2,0-3.3,0c-0.9-0.4-1.8-0.8-2.7-1.3c-2.5-1.4-5.1-2.8-7.5-4.3c-1.1-0.7-1.8-0.6-2.8,0.1
		c-2.7,1.9-5.5,3.7-8.3,5.5C102.5,193.7,85.9,193.7,69.2,193.7z M35.4,120.5c0.8,0,1.4,0,2,0c37.8,0,75.7,0,113.5,0
		c0.4,0,0.9,0.1,1.2,0c0.3-0.1,0.7-0.6,0.6-0.9c-0.6-3.2-1.6-6.3-3.2-9.1c-2.4-4.3-5.7-7.9-9.8-10.5c-2.2-1.4-3.3-3.4-3.2-6
		c0-2.2,0-4.4,0-6.6c0-1.1-0.2-1.5-1.5-1.5c-9,0.1-17.9,0.1-26.9,0c-1.2,0-1.4,0.4-1.4,1.4c0,3.7,0.1,7.3,0,11
		c-0.1,4.3-3.2,8.3-7.1,9.2c-4.7,1.1-9.1-0.8-11.1-5.2c-0.7-1.5-0.8-3.3-1.1-4.9c-0.4-1.9-1.7-3.1-3.6-3.2c-2.5-0.1-4.2,1.4-4.3,4.1
		c-0.1,2.6,0,5.2,0,7.7c0,2.1-0.5,4.1-1.6,5.9c-2,3.1-6.2,4.8-9.9,4c-3.8-0.8-7-4.1-7.4-7.8c-0.2-1.7-0.2-3.3-0.2-5
		c0-5.3,0-10.7,0-16c0-0.5,0.2-1.3-0.7-1.3c-2.6,0-5.1,0-7.8,0c0,0.6-0.1,1-0.1,1.5c0,2.2,0,4.3,0,6.5c0,2.6-1,4.6-3.2,6.1
		c-3.2,2-5.9,4.6-8.1,7.7C37.9,111.3,36.2,115.5,35.4,120.5z M83.7,67.8c-5.5,0-10.9,0-16.4,0c-1,0-1.4,0.3-1.4,1.4
		c0,12.2,0,24.5,0,36.7c0,0.9,0.2,1.9,0.6,2.6c0.9,1.6,2.7,2.3,4.3,1.9c1.8-0.4,3-1.8,3.1-3.7c0.1-2.5,0-4.9,0.1-7.4
		c0.1-1.4,0.2-2.8,0.5-4.2c1.1-4,4.7-6.6,9-6.6c4.2,0,7.9,2.7,9,6.7c0.3,1.2,0.4,2.5,0.7,3.8c0.3,1.4,1.2,2.4,2.5,2.8
		c2.9,1,5.5-1,5.5-4.3c0-9.5,0-19,0-28.5c0-1.2-0.5-1.4-1.5-1.4C94.5,67.8,89.1,67.8,83.7,67.8z M106.9,80.2c0.4,0,0.6,0.1,0.8,0.1
		c10.8,0,21.7,0,32.5,0c0.9,0,1.1-0.4,1.1-1.2c0-3.1,0-6.2,0-9.4c0-1.9,0-1.9-1.8-1.9c-9.3,0-18.6,0-27.9,0c-1.2,0-2.5,0-3.7,0
		c-0.6,0-0.9,0.2-0.9,0.9C106.9,72.5,106.9,76.3,106.9,80.2z M158.5,175.9c0,1.8,0,3.7,0,5.5c0,0.4,0.3,1,0.6,1.2
		c2.9,1.8,5.9,3.5,8.9,5.2c0.9,0.5,1.8,0.5,2.7,0c2.6-1.5,5.2-3,7.8-4.4c1.2-0.7,1.9-1.7,1.9-3.3c-0.1-2.8-0.1-5.6,0-8.4
		c0-1.4-0.5-2.3-1.6-3c-2.8-1.7-5.7-3.3-8.5-4.9c-0.4-0.2-1.1-0.2-1.5,0c-3.1,1.7-6.1,3.5-9.2,5.2c-0.8,0.5-1.1,1-1,1.9
		C158.6,172.6,158.5,174.3,158.5,175.9z M166.7,152.8c0-1.6,0-3.2,0-4.7c0-1.4-0.5-2.4-1.8-3.1c-2.5-1.4-5-2.9-7.5-4.4
		c-1.1-0.6-2.2-0.6-3.3,0c-2.3,1.3-4.6,2.7-6.9,4c-1.3,0.7-2.4,1.6-2.4,3.3c0,3.2,0,6.5,0,9.7c0,0.5,0.4,1.1,0.8,1.4
		c3.1,1.9,6.2,3.7,9.4,5.4c0.4,0.2,1.2,0.2,1.6,0c3.1-1.7,6.1-3.5,9.1-5.3c0.5-0.3,0.9-1,0.9-1.5C166.8,156,166.7,154.4,166.7,152.8
		z M153,176c0-1.8,0-3.6,0-5.4c0-0.4-0.2-1-0.6-1.2c-3.2-1.9-6.4-3.8-9.7-5.6c-0.3-0.2-1-0.2-1.3,0c-2.7,1.5-5.3,3.1-8.1,4.6
		c-1.7,0.9-2.3,2.1-2.2,3.9c0.1,2.7,0.1,5.3,0,8c0,1.5,0.6,2.4,1.8,3c2.5,1.5,5.1,2.9,7.7,4.4c1.1,0.6,2,0.6,3,0
		c2.8-1.6,5.5-3.3,8.3-4.8c0.9-0.5,1.1-1,1.1-2C153,179.3,153,177.6,153,176z M47.1,80.1c0.3,0.1,0.4,0.2,0.5,0.2c4,0,8,0,12,0
		c0.8,0,0.9-0.4,0.9-1c0-3.4,0-6.8,0-10.2c0-0.8-0.3-1.2-1.1-1.2c-3.7,0-7.3,0-11,0c-1,0-1.3,0.4-1.2,1.3c0.1,1.9,0,3.7,0,5.6
		C47.1,76.6,47.1,78.3,47.1,80.1z"/>
	<path class="st2" d="M89.7,5.7c2.3,0.8,4.4,1.7,5.8,3.9c0.6,0.9,1,2,1.6,2.9c1.1-0.2,2.3-0.5,3.5-0.5c4.3-0.1,7.9,2.7,8.9,6.9
		c0.2,1,0.6,1.1,1.5,1.1c3.2,0,6.3,0,9.5,0c1.3,0,2.2,0.7,2.7,1.9c0.4,1.1,0.2,2.2-0.8,2.9c-0.6,0.4-1.4,0.7-2.2,0.7
		c-3.4,0.1-6.7,0-10.3,0c0,1.7,0,3.4,0,5.2c21.4,0,42.7,0,64.1,0c-0.1-1.7-0.2-3.3-0.3-5.2c-0.4,0-0.9,0-1.4,0
		c-12.9,0-25.8,0-38.7,0c-2.1,0-3.2-0.9-3.2-2.7c0-1.5,1-2.6,2.5-2.8c0.5,0,0.9,0,1.4,0c13.6,0,27.2,0,40.7,0c0.9,0,1.6-0.3,2.3-1
		c3.9-4.1,9.6-4.9,14.8-2.3c4.4,2.2,7.1,7.8,6.3,12.9c-1.5,9.2-12.5,13.5-19.8,7.7c-1-0.8-2-1.2-3.4-1.2c-21.3,0-42.6,0-63.9,0
		c-1.1,0-1.7,0.2-2,1.5c-1.2,4.9-6.2,7.6-11.1,6.3c-0.4-0.1-0.9-0.2-1.3-0.3c-2,6.5-9.3,9.2-15.2,4.4c-1.9,1.6-4,2.5-6.6,2.4
		c-3.6-0.2-7-2.4-8.1-5.8c-0.3-0.9-0.6-1-1.5-0.8c-4.5,1.2-8.5-0.4-10.6-4.5c-0.7-1.4-1-3.1-1.1-4.7c-0.1-4.4,0-8.8-0.1-13.2
		c0-7.2,6.6-11.2,12.2-9c0.2,0.1,0.8-0.1,0.8-0.3c1-3.3,3.3-5.3,6.6-6.2c0.1,0,0.2-0.1,0.3-0.2c1.2,0,2.3,0,3.5,0
		c1.6,0.8,3.2,1.5,4.6,2.2c1.6-0.7,3.1-1.5,4.7-2.2C87.5,5.7,88.6,5.7,89.7,5.7z M91.6,28.2C91.6,28.2,91.6,28.2,91.6,28.2
		c0-4.5,0-8.9,0-13.4c0-2.3-1.7-3.8-3.8-3.6c-1.9,0.1-3.2,1.7-3.2,3.9c0,6.7,0,13.3,0,20c0,2.1,0,4.2,0,6.4c0.1,2.2,1.5,3.6,3.7,3.5
		c2,0,3.3-1.4,3.3-3.7C91.6,36.9,91.6,32.6,91.6,28.2z M72,28.1C72,28.1,72,28.1,72,28.1c0,3,0,5.9,0,8.9c0,1.5,0,3,0,4.5
		c0.1,2.4,1.8,3.8,4.2,3.5c1.8-0.2,2.9-1.8,2.9-4c0-8.5,0-17.1,0-25.6c0-0.3,0-0.6,0-0.9c-0.2-2.1-2-3.5-4-3.3
		C73.3,11.4,72,13,72,15C71.9,19.4,72,23.7,72,28.1z M193,27.7c0-3.8-3-6.9-6.8-7c-3.8,0-6.9,3.1-6.9,6.8c0,3.8,3.1,6.9,6.9,6.9
		C189.9,34.5,192.9,31.5,193,27.7z M59.3,28.2c0,2.3,0,4.6,0,6.9c0,1.7,1.1,3.2,2.4,3.6c1.6,0.5,3.3,0,4.1-1.4
		c0.4-0.8,0.6-1.8,0.6-2.7c0.1-4.2,0-8.5,0-12.7c0-0.6-0.1-1.2-0.2-1.7c-0.3-1.4-1.6-2.5-3.1-2.6c-2.2-0.1-3.8,1.5-3.8,4
		C59.3,23.7,59.3,25.9,59.3,28.2z M104.2,28.2C104.2,28.2,104.2,28.2,104.2,28.2c0-2.2,0.1-4.5,0-6.7c0-0.9-0.3-1.8-0.7-2.6
		c-0.8-1.3-2.4-1.8-3.7-1.4c-1.6,0.5-2.6,1.9-2.6,3.8c0,4.5,0,9,0,13.5c0,0.8,0.3,1.7,0.6,2.4c0.8,1.4,2.4,1.9,4,1.4
		c1.3-0.4,2.4-1.7,2.4-3.4C104.3,32.9,104.2,30.5,104.2,28.2z"/>
</g>
</svg>
