<?xml version="1.0" encoding="utf-8"?>
<!-- Generator: Adobe Illustrator 27.1.1, SVG Export Plug-In . SVG Version: 6.00 Build 0)  -->
<svg version="1.1" id="Calque_1" xmlns="http://www.w3.org/2000/svg" xmlns:xlink="http://www.w3.org/1999/xlink" x="0px" y="0px"
	 viewBox="0 0 227.9 199.4" style="enable-background:new 0 0 227.9 199.4;" xml:space="preserve">
<style type="text/css">
	.st0{fill:#0B9778;}
</style>
<g>
	<path class="st0" d="M20.3,152.6c0.2-0.9,0.4-1.8,0.7-2.8c1.4-5.3,4.5-9.1,9.3-11.7c6.5-3.4,15-2.4,20.6,2.6c0.6,0.5,1,0.5,1.5-0.1
		c6.4-6.5,12.9-12.9,19.4-19.4c0.7-0.7,0.9-1.3,0.6-2.4c-1.4-4.5-1-8.8,0.9-13.1c1.2-2.8,3.3-4.8,5.2-7c2.6-2.9,4.6-6.3,6.1-9.9
		c2.6-6.1,3.9-12.4,4.8-18.9c0.8-5.6,1.6-11.1,2.5-16.6c1-6.2,3.2-12,6.2-17.5c4.7-8.4,11.1-15.3,19-20.6c4.1-2.7,8.5-4.9,13.2-6.5
		c4.7-1.6,9.5-2.6,14.4-3c0.3,0,0.6-0.1,0.8-0.2c2.7,0,5.3,0,8,0c2.1,0.3,4.1,0.5,6.2,0.9c6.9,1.3,13.4,3.6,19.4,7.1
		c4.5,2.6,8.6,5.8,12.2,9.5c4.5,4.6,8.2,9.7,11,15.6c2.6,5.5,4.5,11.3,5.2,17.4c0.2,1.4,0.5,2.9,0.7,4.3c0,2.7,0,5.3,0,8
		c-0.2,1.4-0.5,2.8-0.7,4.2c-0.6,5.6-2.3,10.8-4.5,16c-2,4.6-4.7,8.9-7.8,12.8c-3.9,4.8-8.4,8.9-13.5,12.2c-5.7,3.8-11.9,6.5-18.6,8
		c-5,1.1-10,1.6-15,2.4c-6,0.9-12,1.8-17.8,3.6c-4.1,1.2-8,2.7-11.5,5.1c-2.1,1.5-4,3.2-5.9,4.9c-5.4,4.7-11.4,6.1-18.3,4
		c-0.6-0.2-1-0.3-1.5,0.3c-6.6,6.7-13.3,13.3-19.9,19.9c-0.5,0.5-0.5,0.9,0,1.4c4,4.4,5.4,9.7,4.4,15.5c-1,5.7-4,10.3-9.4,12.9
		c-2.1,1-4.5,1.6-6.8,2.3c-1.2,0-2.5,0-3.8,0c-2.2-0.7-4.5-1.2-6.5-2.2c-6.2-3.1-9.4-8.4-9.8-15.3c-0.1-1.1,0-2.2,0-3.4
		c-0.6,0-1,0-1.5,0c-8.9,0.5-16.5-5-18.8-13.7c-0.2-0.9-0.4-1.8-0.7-2.6C20.3,155.1,20.3,153.9,20.3,152.6z M201,64.7
		c-0.1-8.5-1.9-16.4-5.7-23.8c-2.9-5.7-6.8-10.6-11.6-14.9c-4.4-3.9-9.3-7-14.7-9.2c-4.9-2-10-3.1-15.2-3.6c-9.7-0.8-19,1-27.6,5.5
		c-7.9,4-14.4,9.8-19.4,17.3c-4.1,6.2-6.8,13-7.9,20.3c-0.7,4.5-1.1,9.1-1.9,13.6c-1.1,5.6-2.3,11.2-3.8,16.8
		c-0.9,3.2-2.4,6.4-3.8,9.4c-1.8,3.8-4.5,7-7.4,10c-5.3,5.4-3.5,15.3,4.2,17.9c2,0.7,3.2,1.9,3.8,3.9c1.2,3.8,4,6,7.7,6.9
		c3.8,0.9,7.5,0.1,10.3-2.9c6.6-6.8,15-10.3,24.1-12.5c3.1-0.7,6.3-1.3,9.4-1.8c4.6-0.8,9.1-1.5,13.7-2.1c7.4-0.9,14.3-3.1,20.7-6.9
		c8.9-5.4,15.6-12.8,20.1-22.2C199.3,79.4,200.7,72.1,201,64.7z M48.5,175.4c-0.1,2.5,0.8,4.9,2.5,6.9c3,3.5,7.5,4.9,11.8,3.4
		c4.4-1.5,6.9-4.6,7.5-9.2c0.5-4.3-1.1-7.9-4.8-10.3c-2.7-1.8-2.8-4.7-0.8-6.7c7.3-7.1,14.4-14.3,21.6-21.5c0.7-0.7,0.8-1.1,0.1-1.9
		c-1.1-1.3-1.8-2.8-2.8-4.2c-0.4-0.6-0.9-1.1-1.5-1.5c-1.5-1-3.1-2-4.5-3c-0.6-0.5-1-0.5-1.5,0c-0.8,0.9-1.7,1.7-2.5,2.6
		c-6.5,6.5-13,13.1-19.6,19.6c-1.3,1.3-3.2,1.6-4.7,0.6c-0.8-0.6-1.5-1.5-2.1-2.4c-1.8-2.2-4.1-3.6-6.8-4c-4.4-0.6-8.1,0.8-10.7,4.5
		c-2.6,3.7-2.8,7.7-0.7,11.6c2.4,4.5,7.6,6.6,12.6,5.2c2.1-0.6,3.6-1.9,5.3-3.1c1.7-1.2,3.8-0.7,4.9,0.9c1.1,1.6,0.9,3.3-0.7,5.1
		C49.4,170.1,48.4,172.5,48.5,175.4z"/>
	<path class="st0" d="M193.5,69.1c-0.6,2.8-1.1,5.6-1.9,8.4c-1.6,5.2-4.1,10-7.6,14.3c-4.4,5.5-9.8,9.8-16.3,12.7
		c-3.8,1.7-7.8,2.8-11.9,3.5c-1.6,0.3-3.6-1-4.1-2.6c-0.5-1.9,0.3-3.7,2.1-4.3c1.8-0.6,3.6-0.9,5.4-1.4c4.8-1.2,9.1-3.5,13-6.6
		c5.2-4.1,9.1-9.2,11.4-15.4c1-2.6,1.5-5.4,2.1-8.2c0.3-1.3,0.4-2.8,1.6-3.7c1.2-0.9,2.5-1.1,3.9-0.4
		C192.6,66.1,193.3,67.4,193.5,69.1z"/>
	<path class="st0" d="M126.8,39.4c0,1.9-1.8,3.7-3.7,3.6c-1.9-0.1-3.5-1.7-3.6-3.6c0-1.9,1.7-3.7,3.6-3.7
		C125.1,35.7,126.8,37.4,126.8,39.4z"/>
	<path class="st0" d="M145.1,28.4c2,0,3.6,1.6,3.7,3.6c0,2-1.5,3.6-3.6,3.7c-1.9,0-3.7-1.6-3.7-3.6
		C141.5,30.1,143.2,28.4,145.1,28.4z"/>
	<path class="st0" d="M192.8,54c0,2-1.6,3.7-3.6,3.6c-2,0-3.7-1.8-3.6-3.7c0-1.9,1.7-3.6,3.6-3.6C191.2,50.4,192.8,52,192.8,54z"/>
	<path class="st0" d="M134.1,61.4c0,2-1.6,3.7-3.6,3.7c-1.9,0-3.7-1.8-3.7-3.7c0-1.9,1.7-3.6,3.6-3.6
		C132.4,57.7,134.1,59.3,134.1,61.4z"/>
</g>
</svg>
